<svg xmlns="http://www.w3.org/2000/svg" width="118" height="55" viewBox="0 0 118 55">
    <g fill="#B9C6BB" fill-rule="evenodd">
        <path d="M24.875 18.158c1.784 0 2.973-.917 2.973-2.815 0-1.962-1.19-2.794-2.973-2.794h-1.632v5.609h1.632zm-5.582 0v-5.609h-1.631c-1.784 0-2.974.832-2.974 2.794 0 1.898 1.19 2.815 2.974 2.815h1.631zm5.582-8.893c4.056 0 6.901 2.09 6.901 6.078 0 4.073-2.845 6.12-6.901 6.12h-1.632v1.984h-3.95v-1.984h-1.631c-4.099 0-6.902-2.047-6.902-6.12 0-3.988 2.845-6.078 6.902-6.078h1.631V7.452h3.95v1.813h1.632zM44.801 15.556c0-2.559-1.19-4.393-3.546-4.393-2.357 0-3.546 1.813-3.546 4.393 0 2.56 1.189 4.393 3.546 4.393 2.357 0 3.546-1.834 3.546-4.393m4.035 0c0 4.521-2.676 7.89-7.581 7.89s-7.58-3.369-7.58-7.89c0-4.521 2.675-7.89 7.58-7.89s7.58 3.369 7.58 7.89M64.975 7.943V23.17h-3.95v-6.036h-5.627v6.036h-3.95V7.943h3.95v5.63h5.627v-5.63h3.95M77.673 11.44h-3.844v1.152c0 3.305-.467 5.651-1.337 7.08h5.181V11.44zm-6.668 11.73v1.983h-3.95v-5.48h1.572c.892-1.43 1.656-3.776 1.656-7.081v-4.65h11.212v11.73h2.145v5.48h-3.95V23.17h-8.685zM25.218 31.807v15.227h-3.95v-11.73H15.81v11.73h-3.95V31.807h13.357M32.99 39.975h3.376l-1.21-4.414h-.935l-1.231 4.414zm9.28 7.059H38.34l-1.104-3.945H32.14l-1.084 3.945h-3.843l4.544-15.227h5.967l4.544 15.227zM60.022 31.807v15.227h-3.631V36.307h-.425l-1.974 5.907h-3.695l-1.975-5.907h-.425v10.727h-3.631V31.807H50l1.932 5.95h.424l1.933-5.95h5.733M71.49 38.397v-3.135h-2.93c-1.466 0-2.04.533-2.04 1.557 0 1.002.574 1.578 2.04 1.578h2.93zm3.95-6.59v15.227h-3.95v-5.331h-3.143l-1.89 5.33h-3.95l2.187-6.12c-1.422-.81-2.208-2.26-2.208-4.18 0-3.092 2.06-4.926 5.542-4.926h7.411zM90.41 35.305h-4.544v11.729h-3.95v-11.73h-4.523v-3.497H90.41v3.498M95.974 31.807v9.661h.424l4.821-9.66h4.905v15.226h-3.61v-9.66h-.425l-4.82 9.66h-4.905V31.807h3.61M114.024 54.967h3.949V.01h-3.95zM.012 54.967h3.95V.01H.012z"/>
    </g>
</svg>
