<svg xmlns="http://www.w3.org/2000/svg" width="92" height="60" viewBox="0 0 92 60">
    <g fill="#B9C6BB" fill-rule="evenodd">
        <path d="M66.164 24.092v11.187h3.662l3.731-5.507h.347v5.507h3.667V24.092h-3.667l-3.73 5.507h-.348v-5.507zM33.396 35.28v-8.132h3.576v-3.056H26.046v3.056h3.574v8.131zM19.17 26.868c.845 0 1.344.344 1.538 1.009h3.712c-.24-2.452-2.345-4.068-5.273-4.068-3.49 0-5.832 2.24-5.832 5.876 0 3.66 2.342 5.875 5.832 5.875 2.952 0 5.163-1.742 5.38-4.284h-3.709c-.11.775-.714 1.228-1.648 1.228-1.518 0-2.083-1.27-2.083-2.819 0-1.528.545-2.817 2.083-2.817M7.437 29.773h.35v5.507h3.666V24.092H7.787l-3.73 5.506h-.35v-5.506H.042V35.28h3.663zM88.044 24.092l-3.731 5.507h-.347v-5.507H80.3v11.187h3.666l3.73-5.507h.348v5.507h3.493V24.092zM55.905 29.685c0-1.506.693-2.817 2.279-2.817 1.58 0 2.209 1.311 2.209 2.817 0 1.507-.628 2.819-2.21 2.819-1.585 0-2.278-1.312-2.278-2.819m8.264 0c0-3.421-1.865-5.876-4.948-5.876-1.581 0-2.426.65-2.838 1.272h-.433v-.989h-3.666v15.49h3.776V34.29h.433c.409.623 1.17 1.27 2.728 1.27 3.083 0 4.948-2.452 4.948-5.875M41.765 29.685c0-1.549.674-2.817 2.257-2.817 1.583 0 2.231 1.268 2.231 2.817 0 1.572-.648 2.819-2.23 2.819-1.584 0-2.258-1.247-2.258-2.819m8.266 0c0-3.614-2.385-5.876-6.009-5.876-3.598 0-6.027 2.262-6.027 5.876 0 3.615 2.43 5.875 6.027 5.875 3.624 0 6.009-2.26 6.009-5.875M63.605 3.418c2.645 0 4.097-1.223 4.25-3.29H64.99c-.063.495-.452.991-1.385.991S62.28.623 62.216.128h-2.863c.152 2.045 1.603 3.29 4.252 3.29M36.69 12.824c-1.037 0-1.904-.261-2.103-1.035h-3.426c.237 2.516 2.038 3.981 5.769 3.981 3.166 0 5.356-1.465 5.356-3.638 0-1.268-.628-2-1.45-2.258v-.428c.518-.26 1.148-.796 1.148-2.133 0-1.934-1.93-3.29-5.01-3.29-2.928 0-5.18 1.204-5.443 3.916h3.403c.088-.603.694-.97 1.736-.97 1.017 0 1.607.344 1.607.884 0 .578-.461.838-1.302.838h-1.648v2.366h1.758c.932 0 1.428.196 1.428.796 0 .665-.697.97-1.824.97M20.121 19.793h3.73l6.834-15.491h-3.73l-2.277 5.42h-.605l-2.54-5.42H17.76l4.725 9.96zM3.75 4.665h.435l2.017 5.964h3.774l2.017-5.964h.435v10.826h3.707V.128h-5.859L8.308 6.13h-.435L5.898.128H.043V15.49H3.75zM65.295 9.983h.348v5.508h3.492l.005-11.189h-3.497L61.912 9.81h-.347V4.302h-3.667v11.189h3.667zM49.941 6.69c1.064 0 1.646.517 1.843 1.462h-3.795c.281-.945.868-1.462 1.952-1.462m.088 9.08c3.21 0 5.053-1.484 5.528-3.894h-3.814c-.24.559-.738.837-1.65.837-1.407 0-2.124-.815-2.256-2.322h7.808v-.86c0-3.337-2.102-5.509-5.704-5.509-3.536 0-5.831 2.214-5.831 5.875 0 3.655 2.319 5.873 5.919 5.873M20.733 43.942l-2.927 6.134h-.609l-3.212-6.134H.043v15.362h4.031v-11.83h7.629l3.868 7.23-2.211 4.6h3.97l7.412-15.362zM27.454 50.766c0 4.367-.564 4.666-2.148 4.666h-.608v3.872h.703c3.895-.013 5.784-1.163 5.784-8.431v-3.4h4.226v11.831h4.035V43.942H27.454v6.824zM69.936 43.942H58.378v15.362h4.032v-11.83h7.526zM47.185 52.184l1.263-4.45h.952l1.238 4.45h-3.453zm-1.255-8.242l-4.638 15.362h3.925l1.103-3.975h5.205l1.128 3.975h4.012l-4.64-15.362H45.93zM76.125 54.96c0 1.055-.735 1.874-1.973 1.874-.997 0-1.606-.432-1.606-1.27 0-.797.72-1.25 1.758-1.25h1.821v.645zm2.868-5.376c-.893-1.254-2.537-1.745-4.62-1.745-2.908 0-4.95 1.44-5.014 3.615h3.73c.089-.6.546-.97 1.498-.97s1.538.37 1.538 1.423v.194h-2.6c-3.428 0-4.748 1.979-4.748 3.72 0 1.543.86 2.918 2.468 3.483 0 0 .851.276 1.678.276.9 0 1.593-.276 1.593-.276.548-.212.971-.52 1.33-.9h.432v.9h3.293l-.004-7.762c0-.694-.171-1.391-.574-1.958z"/>
    </g>
</svg>
