<svg xmlns="http://www.w3.org/2000/svg" width="193" height="65" viewBox="0 0 193 65">
    <g fill="none" fill-rule="evenodd">
        <path fill="#A6A6A6" d="M59.172 10.536H31.928a6.562 6.562 0 0 0-6.168 4.297L15.205 43.69a6.563 6.563 0 0 1-6.162 4.284h27.244a6.562 6.562 0 0 0 6.169-4.297L53.01 14.819a6.56 6.56 0 0 1 6.161-4.283"/>
        <path fill="#CACACA" d="M23.833 14.136c1.235-3.374 4.488-5.64 8.095-5.64h2.718L36.217 4.2A5.358 5.358 0 0 1 41.25.705h-22.25a5.358 5.358 0 0 0-5.038 3.51l-8.62 23.567a5.36 5.36 0 0 1-5.032 3.5h17.253l6.27-17.146"/>
        <path fill="#B9C6BB" d="M66.702 23.497h.817c.552 0 1.061.076 1.527.227a3.39 3.39 0 0 1 1.203.673c.336.299.597.663.78 1.093.185.432.277.924.277 1.472 0 .56-.102 1.057-.304 1.493a3.293 3.293 0 0 1-.823 1.108c-.344.303-.748.53-1.208.687a4.489 4.489 0 0 1-1.452.234h-.817v1.196h-2.059v-1.196h-.815a4.936 4.936 0 0 1-1.528-.227 3.294 3.294 0 0 1-1.195-.673 3.091 3.091 0 0 1-.775-1.093c-.184-.432-.276-.922-.276-1.473 0-.56.101-1.056.305-1.492.201-.436.476-.805.822-1.108a3.57 3.57 0 0 1 1.203-.689 4.45 4.45 0 0 1 1.444-.232h.815v-1.226h2.06v1.226zm-2.806 1.775c-.58 0-1.021.155-1.327.467-.303.311-.456.732-.456 1.266 0 .54.16.957.478 1.25.318.295.753.441 1.305.441h.747v-3.424h-.747zm3.553 3.437c.58 0 1.023-.155 1.327-.468.305-.312.456-.733.456-1.265 0-.54-.159-.958-.476-1.25-.318-.295-.753-.441-1.307-.441h-.747v3.424h.747zM79.945 22.636c.609.244 1.127.58 1.556 1.012.429.432.763.938 1.002 1.52.24.582.36 1.216.36 1.905 0 .66-.12 1.282-.36 1.864a4.64 4.64 0 0 1-2.564 2.558 5.152 5.152 0 0 1-1.997.379c-.72 0-1.379-.123-1.977-.365a4.719 4.719 0 0 1-1.556-1.01 4.5 4.5 0 0 1-1.016-1.527 4.998 4.998 0 0 1-.359-1.9c0-.658.12-1.283.36-1.87a4.47 4.47 0 0 1 1.015-1.526 4.875 4.875 0 0 1 1.556-1.025 5.034 5.034 0 0 1 1.977-.38 5.36 5.36 0 0 1 2.003.365zm-3.2 1.714a2.628 2.628 0 0 0-1.457 1.567c-.13.358-.195.743-.195 1.155 0 .413.066.801.195 1.163s.318.677.565.943c.25.266.55.474.899.624a2.97 2.97 0 0 0 1.19.228c.452 0 .854-.077 1.209-.235.355-.154.654-.368.898-.638.245-.27.429-.584.554-.943.124-.357.187-.738.187-1.141 0-.422-.066-.814-.195-1.176a2.716 2.716 0 0 0-.56-.941 2.477 2.477 0 0 0-.898-.62 3.086 3.086 0 0 0-1.195-.221c-.442 0-.841.078-1.196.235zM87.027 26.068h4.05v-3.603h2.087v9.215h-2.087v-3.699h-4.05v3.7h-2.088v-9.216h2.088v3.603M104.235 29.823h1.342v.564l-.181 3.22h-1.866l-.082-1.927h-6.262l-.11 1.926h-1.881l-.11-3.204v-.564h.386c.195 0 .388-.07.58-.207.195-.137.357-.353.485-.645.249-.551.429-1.262.54-2.134.11-.871.165-1.833.165-2.888v-1.5h6.994v7.36zm-5.196-2.173c-.158.928-.37 1.65-.637 2.173h3.76V24.31h-2.875c-.01 1.301-.092 2.416-.248 3.341zM68.625 48.195h-2.088V40.89h-3.925v7.304h-2.089v-9.216h8.102v9.216M76.811 39.22c.451.161.84.386 1.168.675.327.288.578.637.753 1.045.175.407.263.864.263 1.368 0 .533-.1 1.006-.297 1.424-.199.418-.47.77-.817 1.059-.344.29-.752.51-1.221.66-.471.152-.977.228-1.522.228h-1.88v2.516h-2.074v-9.216h4.12c.552 0 1.056.082 1.507.241zm-1.673 4.63c.552 0 .986-.138 1.3-.414.312-.275.47-.645.47-1.114 0-.459-.142-.822-.422-1.093-.28-.272-.702-.406-1.265-.406h-1.963v3.027h1.88zM87.868 40.836h-4.88v1.735h4.353v1.8H82.99v1.967h5.114v1.857h-7.16v-9.216h6.925v1.857M95.054 42.336c.184-.155.276-.371.276-.646 0-.35-.122-.613-.365-.79-.245-.18-.644-.27-1.197-.27-.865 0-1.677.289-2.433.868l-1.078-1.418a5.324 5.324 0 0 1 1.666-.977 5.848 5.848 0 0 1 1.97-.316c.554 0 1.047.065 1.479.192.433.129.801.308 1.106.537.304.23.537.503.698.82.161.314.241.666.241 1.051 0 .395-.08.75-.242 1.065a1.76 1.76 0 0 1-.725.75v.125c.442.146.788.396 1.037.749.248.353.373.786.373 1.3 0 .431-.085.83-.255 1.197-.171.366-.425.683-.76.948-.338.266-.756.477-1.26.634-.501.155-1.088.233-1.762.233a8.28 8.28 0 0 1-1.146-.075c-.36-.05-.7-.132-1.023-.241a5.126 5.126 0 0 1-.926-.42 5.522 5.522 0 0 1-.872-.626l1.093-1.513c.48.377.956.643 1.43.798a5.079 5.079 0 0 0 1.584.235c.607 0 1.061-.114 1.36-.338.3-.223.45-.52.45-.887 0-.642-.42-.963-1.258-.963h-2.337v-1.787h2.116c.322 0 .576-.079.76-.235M101.975 45.114l4.478-6.135h1.826v9.216h-2.06v-5.79l-4.257 5.79h-2.033v-9.216h2.046v6.135M119.35 46.338h1.34v.564l-.18 3.219h-1.865l-.084-1.926H112.3l-.11 1.926h-1.88l-.11-3.204v-.565h.386a.993.993 0 0 0 .582-.206c.193-.138.354-.352.483-.646.248-.551.428-1.26.54-2.132.11-.871.164-1.834.164-2.89V38.98h6.996v7.359zm-5.198-2.173c-.157.926-.368 1.651-.635 2.173h3.759v-5.515H114.4c-.01 1.301-.092 2.415-.249 3.342zM129.577 40.836h-4.88v1.735h4.355v1.8h-4.355v1.967h5.115v1.857h-7.16v-9.216h6.925v1.857M134.108 42.584h4.05v-3.605h2.088v9.216h-2.088v-3.7h-4.05v3.7h-2.087v-9.216h2.087v3.605M150.55 40.85h-3.165v7.345h-2.059V40.85h-3.167v-1.87h8.391v1.87M158.339 40.9a4.096 4.096 0 0 0-1.403-.23c-.452 0-.86.073-1.225.215a2.64 2.64 0 0 0-.932.606c-.259.26-.456.57-.594.927a3.219 3.219 0 0 0-.208 1.169c0 .442.071.84.215 1.198.141.358.343.662.6.914.258.252.567.448.926.591.36.142.756.213 1.19.213.525 0 1.015-.089 1.472-.267a3.761 3.761 0 0 0 1.224-.779l1.174 1.445c-1.051.991-2.377 1.486-3.98 1.486-.72 0-1.378-.112-1.978-.337a4.405 4.405 0 0 1-1.54-.963 4.367 4.367 0 0 1-1.003-1.505c-.239-.588-.36-1.243-.36-1.968 0-.659.118-1.284.353-1.872.234-.586.574-1.099 1.017-1.539.442-.44.975-.786 1.603-1.039.626-.252 1.335-.378 2.129-.378.718 0 1.376.108 1.976.322a5 5 0 0 1 1.603.944l-1.147 1.498a3.39 3.39 0 0 0-1.112-.651M164.743 42.488l1.01-.111 2.613-3.398h2.556l-3.441 4.307 3.774 4.909h-2.668l-2.82-3.933h-1.024v3.933h-2.045v-9.216h2.045v3.509M175.186 45.114l4.48-6.135h1.824v9.216h-2.06v-5.79l-4.257 5.79h-2.033v-9.216h2.046v6.135M188.116 42.268h.14l1.837-3.289h2.558l-2.959 4.54 3.249 4.676h-2.682l-2.074-3.549h-.138l-2.045 3.549h-2.668l3.248-4.787-2.959-4.429h2.586l1.907 3.289M67.532 57.365h-4.935v7.345h-2.074v-9.215h7.01v1.87M75.03 55.735c.45.16.841.385 1.168.673.327.29.577.64.753 1.048.175.407.262.864.262 1.368 0 .53-.098 1.006-.297 1.422-.197.418-.47.771-.816 1.06-.345.289-.753.509-1.222.66-.47.152-.977.227-1.52.227h-1.881v2.517h-2.073v-9.215h4.119c.553 0 1.055.08 1.506.24zm-1.672 4.628c.552 0 .986-.138 1.299-.412.313-.275.469-.646.469-1.114 0-.46-.14-.823-.422-1.093-.28-.27-.702-.407-1.265-.407h-1.962v3.026h1.88zM87.78 64.71h-2.296l-.704-1.83h-3.968l-.69 1.83h-2.254l3.8-9.228h2.283l3.828 9.228zm-3.678-3.644l-1.23-3.509h-.139l-1.244 3.509h2.613zM91.752 59.098h4.05v-3.603h2.088v9.215h-2.088v-3.7h-4.05v3.7h-2.087v-9.215h2.087v3.603M108.194 57.365h-3.165v7.345h-2.06v-7.345h-3.166v-1.87h8.391v1.87M116.473 55.667c.608.242 1.126.58 1.555 1.01.428.431.762.938 1.003 1.52.239.582.359 1.217.359 1.906 0 .66-.12 1.28-.36 1.863a4.654 4.654 0 0 1-1.009 1.527c-.434.436-.952.78-1.556 1.031a5.12 5.12 0 0 1-1.997.379 5.205 5.205 0 0 1-1.977-.365 4.727 4.727 0 0 1-1.555-1.01A4.505 4.505 0 0 1 109.921 62a4.95 4.95 0 0 1-.36-1.897c0-.66.12-1.284.36-1.87a4.505 4.505 0 0 1 1.015-1.528c.438-.43.956-.773 1.555-1.024.6-.254 1.259-.38 1.977-.38.728 0 1.396.122 2.005.366zm-3.2 1.712a2.69 2.69 0 0 0-.9.632c-.243.266-.43.58-.56.935-.128.36-.192.745-.192 1.157 0 .412.064.799.193 1.162.129.362.319.677.567.941.25.266.548.475.898.627.35.15.747.226 1.19.226a3.02 3.02 0 0 0 1.21-.232 2.59 2.59 0 0 0 .897-.641c.244-.27.43-.585.553-.943a3.43 3.43 0 0 0 .187-1.14c0-.423-.064-.814-.193-1.176a2.752 2.752 0 0 0-.56-.944 2.516 2.516 0 0 0-.9-.618 3.108 3.108 0 0 0-1.195-.22c-.442 0-.841.079-1.195.234zM127.941 56.169c.558.447.838 1.064.838 1.842 0 .386-.08.73-.242 1.033-.162.301-.38.527-.657.673v.124c.452.148.814.411 1.086.79.271.38.406.825.406 1.329 0 .376-.066.73-.2 1.066-.134.334-.34.625-.622.873-.28.247-.639.444-1.07.591-.434.147-.946.22-1.536.22h-4.477v-9.215h4.09c1.033 0 1.827.223 2.384.674zm-2.301 2.957c.35 0 .625-.085.823-.255.198-.17.296-.4.296-.695 0-.614-.394-.92-1.187-.92h-2.046v1.87h2.114zm.333 3.824c.911 0 1.368-.364 1.368-1.086 0-.35-.12-.612-.36-.792-.24-.179-.58-.269-1.022-.269h-2.433v2.147h2.447z"/>
    </g>
</svg>
