<svg xmlns="http://www.w3.org/2000/svg" width="120" height="23" viewBox="0 0 120 23">
    <g fill="#B9C6BB" fill-rule="nonzero">
        <path d="M69.231 0H72v23h-2.769zM111.552 0h-2.487l-8.45 23h3.39l2.42-6.76h7.766l2.422 6.76H120l-8.448-23zm-4.045 13.137l2.799-8.083 2.803 8.083h-5.602zM86.66 3.111h4.892l3.183 3.212 2.188-2.207L92.838 0h-7.464l-5.99 6.041v10.91L85.379 23h7.456l4.09-4.123-2.189-2.209-3.183 3.214h-4.891l-4.185-4.223V7.332zM61.039 8.078v-3.85L56.849 0H46.155v23h10.928l4.764-4.81V13.8l-3.238-3.27 2.43-2.452zm-11.794-4.98h6.373l2.374 2.396v1.3l-2.437 2.461h-6.31V3.1zm9.564 11.989v1.817l-2.974 3.001H49.24v-7.591h6.825l2.744 2.773zM24 0v23h3.213v-9.35h5.66L37.004 23h3.553l-4.316-9.588 4.374-4.335V4.489L36.068 0H24zm13.453 7.805l-2.744 2.709h-7.495V3.13h7.554l2.686 2.651v2.024zM13.585 16.643l-3.104 3.202H6.124L3.03 16.643V0H0v17.972L4.825 23h6.957l4.833-5.028V0h-3.03z"/>
    </g>
</svg>
