<?xml version="1.0" standalone="no"?>
<!DOCTYPE svg PUBLIC "-//W3C//DTD SVG 20010904//EN"
 "http://www.w3.org/TR/2001/REC-SVG-20010904/DTD/svg10.dtd">
<svg version="1.0" xmlns="http://www.w3.org/2000/svg"
 width="700.000000pt" height="700.000000pt" viewBox="0 0 700.000000 700.000000"
 preserveAspectRatio="xMidYMid meet">
<metadata>
Created by potrace 1.11, written by Peter Selinger 2001-2013
</metadata>
<g transform="translate(0.000000,700.000000) scale(0.100000,-0.100000)"
fill="#000000" stroke="none">
<path d="M0 3500 l0 -3500 3500 0 3500 0 0 3500 0 3500 -3500 0 -3500 0 0
-3500z m4426 1693 c417 -515 762 -942 766 -948 7 -11 -210 -196 -229 -194 -4
0 -332 400 -727 890 -396 489 -723 888 -727 887 -5 -2 -331 -401 -725 -888
-394 -487 -722 -885 -729 -884 -21 2 -226 176 -222 189 3 6 346 433 764 948
l758 937 156 0 155 0 760 -937z m-1823 -1192 c114 -25 133 -33 165 -63 119
-113 732 -658 740 -658 5 0 183 157 396 349 l387 348 147 31 c81 17 148 29
150 27 5 -4 602 -3077 602 -3096 0 -14 -28 -22 -145 -45 -80 -15 -147 -25
-148 -23 -2 2 -40 198 -86 434 -45 237 -85 438 -87 448 -3 10 -278 263 -611
563 l-605 546 -32 -30 c-17 -16 -283 -255 -591 -531 -308 -276 -567 -512 -576
-524 -11 -14 -47 -180 -100 -457 -45 -239 -86 -439 -90 -444 -4 -5 -71 4 -153
20 -119 23 -145 31 -141 44 2 8 137 701 300 1540 163 839 298 1533 301 1543 4
12 12 15 27 12 12 -3 80 -18 150 -34z"/>
<path d="M2655 3608 c-9 -28 -256 -1311 -253 -1320 2 -6 647 566 876 776 2 3
-522 477 -589 534 -22 17 -30 20 -34 10z"/>
<path d="M4043 3347 c-166 -150 -302 -275 -302 -278 -1 -9 870 -792 875 -786
3 3 -230 1228 -251 1315 -3 12 -9 22 -13 21 -4 0 -143 -123 -309 -272z"/>
</g>
</svg>
