<?xml version="1.0" standalone="no"?>
<!DOCTYPE svg PUBLIC "-//W3C//DTD SVG 20010904//EN"
 "http://www.w3.org/TR/2001/REC-SVG-20010904/DTD/svg10.dtd">
<svg version="1.0" xmlns="http://www.w3.org/2000/svg"
 width="700.000000pt" height="700.000000pt" viewBox="0 0 700.000000 700.000000"
 preserveAspectRatio="xMidYMid meet">
<metadata>
Created by potrace 1.11, written by Peter Selinger 2001-2013
</metadata>
<g transform="translate(0.000000,700.000000) scale(0.100000,-0.100000)"
fill="#000000" stroke="none">
<path d="M3299 6763 c-14 -16 -52 -62 -85 -103 -32 -41 -67 -84 -76 -95 -18
-22 -242 -298 -288 -355 -40 -49 -183 -226 -410 -506 -107 -133 -211 -261
-230 -285 -19 -23 -105 -129 -190 -234 -191 -235 -316 -389 -487 -602 l-133
-164 150 -121 c83 -66 152 -119 153 -117 7 10 123 155 127 159 6 5 195 238
455 560 60 74 136 169 170 210 34 41 110 136 170 210 60 74 137 169 170 210
34 41 189 233 344 425 156 193 299 369 319 392 20 24 39 48 43 55 9 15 4 20
90 -87 35 -44 71 -89 81 -100 9 -11 85 -105 170 -210 84 -104 288 -356 453
-560 165 -203 305 -377 312 -385 6 -8 45 -55 85 -105 41 -49 197 -242 347
-427 150 -186 277 -340 282 -344 7 -4 145 99 169 126 3 3 33 28 68 54 34 27
62 51 62 53 0 4 -238 303 -250 313 -3 3 -21 25 -40 50 -19 25 -37 47 -40 50
-3 3 -33 39 -65 80 -32 41 -62 77 -65 80 -3 3 -44 52 -90 110 -47 58 -92 114
-101 125 -19 23 -500 617 -599 740 -36 44 -69 85 -75 91 -5 6 -140 174 -300
372 l-290 361 -191 0 -190 1 -25 -27z"/>
<path d="M2156 4168 c-4 -14 -22 -105 -30 -148 -2 -14 -7 -36 -10 -50 -3 -14
-8 -36 -10 -50 -3 -20 -46 -242 -72 -375 -15 -80 -94 -485 -98 -505 -8 -40
-55 -283 -61 -310 -10 -51 -25 -126 -29 -150 -2 -14 -15 -83 -29 -155 -14 -71
-28 -143 -31 -160 -3 -16 -21 -109 -40 -205 -19 -96 -37 -186 -40 -200 -2 -14
-10 -50 -16 -80 -6 -30 -13 -68 -16 -85 -2 -16 -32 -167 -64 -335 -33 -168
-62 -316 -65 -330 -3 -14 -9 -48 -15 -76 -6 -28 -13 -64 -16 -80 -2 -16 -11
-63 -19 -104 -9 -41 -17 -86 -20 -100 -3 -14 -9 -47 -15 -75 -5 -27 -12 -63
-15 -80 -2 -16 -14 -75 -25 -129 -11 -55 -19 -100 -18 -102 2 -1 17 -4 33 -7
17 -3 64 -12 105 -21 41 -8 91 -18 110 -21 19 -3 53 -10 75 -15 22 -5 43 -10
46 -10 4 0 10 17 14 38 9 50 14 73 19 97 22 107 58 297 62 324 3 19 6 37 8 40
3 5 51 251 72 371 3 14 7 32 9 40 2 8 7 29 10 45 25 145 35 179 57 199 47 42
223 201 228 206 3 3 48 43 100 90 52 47 97 87 100 90 3 3 46 41 95 85 50 43
97 86 106 95 8 8 51 47 94 85 43 39 83 75 89 80 6 6 56 50 111 100 55 49 105
94 111 100 6 5 46 42 89 80 43 39 83 75 89 80 6 6 54 48 106 95 52 47 111 99
130 117 33 31 35 31 55 15 26 -22 219 -195 270 -242 22 -20 112 -101 200 -180
88 -78 196 -176 240 -215 44 -40 102 -93 129 -116 27 -24 64 -57 81 -74 18
-16 63 -57 101 -90 37 -33 77 -69 89 -80 11 -11 61 -56 110 -100 286 -255 273
-241 286 -305 6 -30 12 -66 15 -80 2 -14 22 -115 44 -225 21 -110 42 -215 45
-234 3 -19 19 -100 35 -180 16 -80 31 -159 34 -175 3 -16 11 -55 17 -85 6 -31
13 -63 14 -71 2 -15 23 -17 80 -5 17 3 89 17 160 31 120 24 151 36 139 55 -2
4 -17 76 -34 161 -16 84 -34 176 -40 203 -5 28 -12 61 -14 75 -5 26 -25 129
-56 290 -11 52 -40 201 -65 330 -25 129 -48 246 -50 260 -3 14 -8 38 -11 54
-3 17 -18 96 -34 176 -16 80 -32 162 -35 181 -3 19 -8 41 -10 49 -2 8 -6 27
-9 43 -8 45 -45 241 -81 422 -19 94 -37 185 -40 202 -3 18 -15 79 -26 135 -11
57 -22 112 -24 123 -2 11 -13 70 -25 130 -12 61 -23 121 -26 135 -2 14 -16 84
-30 155 -15 72 -28 141 -30 155 -2 14 -9 45 -14 70 -5 25 -12 56 -14 70 -2 14
-14 75 -26 135 -12 61 -24 124 -27 140 -2 17 -11 61 -19 98 -8 38 -14 71 -14
73 0 3 -4 3 -8 0 -5 -3 -22 -8 -38 -10 -47 -9 -72 -14 -205 -42 -100 -21 -133
-32 -155 -53 -16 -14 -74 -66 -129 -116 -55 -49 -102 -92 -105 -95 -3 -3 -45
-41 -95 -85 -99 -88 -153 -137 -195 -175 -29 -27 -132 -119 -295 -265 -55 -49
-106 -96 -114 -103 -11 -11 -18 -9 -40 10 -39 34 -114 102 -220 198 -52 47
-102 92 -111 100 -40 35 -165 147 -190 170 -34 32 -177 161 -244 220 -28 25
-79 71 -113 103 l-61 59 -154 34 c-84 19 -166 37 -182 40 -16 3 -33 7 -38 10
-4 3 -10 -1 -12 -8z m389 -603 c38 -33 81 -71 95 -85 15 -14 64 -58 111 -99
46 -41 89 -79 94 -85 6 -6 48 -45 95 -86 47 -41 92 -82 100 -90 8 -8 50 -46
93 -84 68 -60 94 -96 70 -96 -5 0 -24 -15 -43 -33 -19 -18 -82 -75 -140 -127
-58 -51 -143 -128 -190 -170 -178 -161 -206 -186 -239 -215 -19 -17 -41 -37
-50 -45 -9 -9 -61 -56 -116 -105 -55 -50 -105 -94 -111 -100 -191 -173 -198
-179 -189 -153 2 7 6 27 9 43 3 17 11 64 20 105 8 41 17 86 19 100 7 38 39
203 42 221 2 9 15 74 29 145 14 71 27 140 30 154 2 14 14 70 25 125 11 55 22
111 24 125 3 14 10 52 16 85 18 97 20 107 35 180 8 39 26 133 41 210 33 175
31 170 49 153 7 -7 44 -40 81 -73z m2049 -46 c14 -68 43 -216 65 -329 22 -113
54 -277 71 -365 17 -88 33 -171 36 -185 2 -14 9 -47 14 -75 16 -78 19 -94 36
-185 9 -47 18 -94 20 -105 3 -11 13 -65 24 -120 10 -55 23 -119 28 -142 6 -24
9 -43 7 -43 -2 0 -16 13 -33 28 -16 15 -65 59 -107 97 -43 39 -83 75 -89 80
-6 6 -51 46 -101 90 -49 44 -99 89 -110 100 -12 11 -54 49 -94 85 -40 36 -83
74 -95 85 -13 11 -60 54 -106 95 -46 41 -93 84 -106 95 -12 11 -54 49 -94 85
-40 36 -93 84 -119 107 l-46 42 35 32 c19 17 55 50 80 72 25 22 68 61 95 86
28 25 93 84 145 131 52 47 113 101 135 121 54 49 87 79 121 109 16 14 58 52
93 83 35 32 65 56 67 54 2 -2 15 -59 28 -128z"/>
</g>
</svg>
